<svg width="30" height="30" viewBox="0 0 30 30" fill="none" xmlns="http://www.w3.org/2000/svg">
<path d="M15 30C6.71573 30 4.96071e-06 23.2843 3.87436e-06 15C2.78801e-06 6.71573 6.71573 3.05336e-06 15 1.96701e-06C23.2843 8.80661e-07 30 6.71573 30 15C30 23.2843 23.2843 30 15 30Z" fill="#ECECEC"/>
<path d="M15 30C6.71573 30 4.96071e-06 23.2843 3.87436e-06 15C2.78801e-06 6.71573 6.71573 3.05336e-06 15 1.96701e-06C23.2843 8.80661e-07 30 6.71573 30 15C30 23.2843 23.2843 30 15 30Z" stroke="#ECECEC"/>
<path d="M16 20L11 15L16 10" stroke="black"/>
</svg>
